ffmpeg started on 2016-11-25 at 19:09:44
Report written to "Output/NVENCh264/results/ffmpeg/Tsintelbd3500k.log"
Command line:
Tools/ffmpeg/ffmpeg -i Output/NVENCh264/encoded/sintelbd3500k.mkv -c:v rawvideo -pix_fmt yuv420p Output/NVENCh264/transcoded/sintelbd3500k.yuv
ffmpeg version N-82227-gdb23fde Copyright (c) 2000-2016 the FFmpeg developers
  built with gcc 5.4.0 (Ubuntu 5.4.0-6ubuntu1~16.04.2) 20160609
  configuration: --prefix=/home/jaroslav/ffmpeg_build --pkg-config-flags=--static --extra-cflags=-I/home/jaroslav/ffmpeg_build/include --extra-ldflags=-L/home/jaroslav/ffmpeg_build/lib --bindir=/home/jaroslav/bin --enable-gpl --enable-libass --enable-libfdk-aac --enable-libfreetype --enable-libmp3lame --enable-libopus --enable-libtheora --enable-libvorbis --enable-libvpx --enable-libx264 --enable-libx265 --enable-nvenc --enable-libmfx --enable-libxvid --enable-libgsm --enable-libopencore-amrnb --enable-version3 --enable-nonfree
  libavutil      55. 35.100 / 55. 35.100
  libavcodec     57. 66.101 / 57. 66.101
  libavformat    57. 57.100 / 57. 57.100
  libavdevice    57.  2.100 / 57.  2.100
  libavfilter     6. 66.100 /  6. 66.100
  libswscale      4.  3.100 /  4.  3.100
  libswresample   2.  4.100 /  2.  4.100
  libpostproc    54.  2.100 / 54.  2.100
Input #0, matroska,webm, from 'Output/NVENCh264/encoded/sintelbd3500k.mkv':
  Metadata:
    ENCODER         : Lavf57.57.100
  Duration: 00:00:20.83, start: 0.000000, bitrate: 3139 kb/s
    Stream #0:0: Video: h264 (Main), yuv420p(progressive), 4096x1744 [SAR 1:1 DAR 256:109], 24 fps, 24 tbr, 1k tbn, 48 tbc (default)
    Metadata:
      ENCODER         : Lavc57.66.101 h264_nvenc
      DURATION        : 00:00:20.834000000
Output #0, rawvideo, to 'Output/NVENCh264/transcoded/sintelbd3500k.yuv':
  Metadata:
    encoder         : Lavf57.57.100
    Stream #0:0: Video: rawvideo (I420 / 0x30323449), yuv420p, 4096x1744 [SAR 1:1 DAR 256:109], q=2-31, 200 kb/s, 24 fps, 24 tbn, 24 tbc (default)
    Metadata:
      DURATION        : 00:00:20.834000000
      encoder         : Lavc57.66.101 rawvideo
Stream mapping:
  Stream #0:0 -> #0:0 (h264 (native) -> rawvideo (native))
Press [q] to stop, [?] for help
frame=   20 fps=0.0 q=-0.0 size=  209280kB time=00:00:00.83 bitrate=2057306.9kbits/s speed= 1.6x    frame=   40 fps= 39 q=-0.0 size=  418560kB time=00:00:01.66 bitrate=2057305.7kbits/s speed=1.61x    frame=   61 fps= 39 q=-0.0 size=  638304kB time=00:00:02.54 bitrate=2057305.8kbits/s speed=1.63x    frame=   81 fps= 39 q=-0.0 size=  847584kB time=00:00:03.37 bitrate=2057306.1kbits/s speed=1.64x    frame=  101 fps= 39 q=-0.0 size= 1056864kB time=00:00:04.20 bitrate=2057306.3kbits/s speed=1.64x    frame=  121 fps= 39 q=-0.0 size= 1266144kB time=00:00:05.04 bitrate=2057306.0kbits/s speed=1.64x    frame=  141 fps= 39 q=-0.0 size= 1475424kB time=00:00:05.87 bitrate=2057306.1kbits/s speed=1.64x    frame=  161 fps= 39 q=-0.0 size= 1684704kB time=00:00:06.70 bitrate=2057306.2kbits/s speed=1.64x    frame=  181 fps= 39 q=-0.0 size= 1893984kB time=00:00:07.54 bitrate=2057306.0kbits/s speed=1.64x    frame=  201 fps= 39 q=-0.0 size= 2103264kB time=00:00:08.37 bitrate=2057306.1kbits/s speed=1.64x    frame=  221 fps= 39 q=-0.0 size= 2312544kB time=00:00:09.20 bitrate=2057306.2kbits/s speed=1.64x    frame=  241 fps= 39 q=-0.0 size= 2521824kB time=00:00:10.04 bitrate=2057306.0kbits/s speed=1.64x    frame=  261 fps= 39 q=-0.0 size= 2731104kB time=00:00:10.87 bitrate=2057306.1kbits/s speed=1.64x    frame=  281 fps= 39 q=-0.0 size= 2940384kB time=00:00:11.70 bitrate=2057306.2kbits/s speed=1.64x    frame=  301 fps= 39 q=-0.0 size= 3149664kB time=00:00:12.54 bitrate=2057306.1kbits/s speed=1.64x    frame=  317 fps= 39 q=-0.0 size= 3317088kB time=00:00:13.20 bitrate=2057306.2kbits/s speed=1.61x    frame=  335 fps= 39 q=-0.0 size= 3505440kB time=00:00:13.95 bitrate=2057306.2kbits/s speed= 1.6x    frame=  354 fps= 38 q=-0.0 size= 3704256kB time=00:00:14.75 bitrate=2057306.1kbits/s speed= 1.6x    frame=  372 fps= 38 q=-0.0 size= 3892608kB time=00:00:15.50 bitrate=2057306.1kbits/s speed=1.57x    frame=  387 fps= 37 q=-0.0 size= 4049568kB time=00:00:16.12 bitrate=2057306.1kbits/s speed=1.54x    frame=  405 fps= 37 q=-0.0 size= 4237920kB time=00:00:16.87 bitrate=2057306.1kbits/s speed=1.54x    frame=  418 fps= 36 q=-0.0 size= 4373952kB time=00:00:17.41 bitrate=2057306.1kbits/s speed=1.51x    frame=  436 fps= 36 q=-0.0 size= 4562304kB time=00:00:18.16 bitrate=2057306.1kbits/s speed=1.51x    frame=  454 fps= 36 q=-0.0 size= 4750656kB time=00:00:18.91 bitrate=2057306.1kbits/s speed=1.51x    frame=  469 fps= 36 q=-0.0 size= 4907616kB time=00:00:19.54 bitrate=2057306.1kbits/s speed=1.49x    frame=  489 fps= 36 q=-0.0 size= 5116896kB time=00:00:20.37 bitrate=2057306.1kbits/s speed= 1.5x    frame=  500 fps= 36 q=-0.0 Lsize= 5232000kB time=00:00:20.83 bitrate=2057306.1kbits/s speed= 1.5x    
video:5232000kB audio:0kB subtitle:0kB other streams:0kB global headers:0kB muxing overhead: 0.000000%
